<svg width="1298" height="978" viewBox="0 0 1298 978" fill="none" xmlns="http://www.w3.org/2000/svg">
<g clip-path="url(#clip0_562_2104)">
<path opacity="0.18" d="M451.91 660.044C518.113 689.135 592.993 688.687 665.311 687.727C703.247 687.247 742.495 686.479 777.037 670.765C825.057 648.906 856.238 601.989 898.368 570.241C946.74 533.725 1008.65 517.979 1055.55 479.607C1078.38 460.944 1096.86 437.533 1109.72 411.002C1122.57 384.471 1129.49 355.458 1129.99 325.983C1130.48 296.508 1124.55 267.278 1112.59 240.33C1100.64 213.381 1082.96 189.36 1060.77 169.94C1035.96 148.241 1006.35 132.911 976.993 117.838L829.571 41.9889C795.029 24.2269 759.59 6.17679 721.046 1.34423C688.52 -2.72023 655.611 2.91241 623.821 10.1772C533.224 30.6596 443.33 65.9596 376.871 130.575C319.695 186.261 282.367 261.054 219.813 310.628C203.807 323.269 186.071 334.438 174.418 351.144C132.481 411.343 174.962 488.248 229.449 519.1C304.905 561.792 372.805 625.32 451.91 660.044Z" fill="#1A6683"/>
<path d="M649.016 978C927.802 978 1153.8 950.088 1153.8 915.657C1153.8 881.225 927.802 853.313 649.016 853.313C370.23 853.313 144.23 881.225 144.23 915.657C144.23 950.088 370.23 978 649.016 978Z" fill="#1A6683"/>
<path d="M649.016 978C927.802 978 1153.8 950.088 1153.8 915.657C1153.8 881.225 927.802 853.313 649.016 853.313C370.23 853.313 144.23 881.225 144.23 915.657C144.23 950.088 370.23 978 649.016 978Z" fill="url(#paint0_linear_562_2104)"/>
<path d="M372.485 306.595C363.122 300.247 352.579 295.844 341.482 293.645C330.385 291.446 318.959 291.496 307.882 293.794C303.827 294.425 299.997 296.065 296.741 298.562C289.154 304.963 290.339 316.868 288.322 326.661C285.857 338.727 277.757 349.064 274.844 360.969C273.148 369.928 273.05 379.116 274.556 388.108C278.822 423.581 287.323 458.414 299.879 491.864L264.664 955.63C264.664 955.63 300.679 961.454 373.733 967.279L381.481 525.628L372.485 306.595Z" fill="#EEA886"/>
<path d="M332.436 577.058L379.079 765.624V493.657L358.335 432.018L332.436 577.058Z" fill="url(#paint1_linear_562_2104)"/>
<path d="M942.386 310.563C951.77 304.263 962.321 299.906 973.417 297.752C984.513 295.597 995.929 295.687 1006.99 298.018C1011.05 298.664 1014.89 300.302 1018.16 302.787C1025.72 309.187 1024.56 321.093 1026.55 330.918C1029.05 342.983 1037.15 353.32 1040.06 365.226C1041.76 374.174 1041.85 383.354 1040.32 392.333C1036.08 427.807 1027.59 462.643 1015.02 496.089L1050.08 953.389C1050.08 953.389 1010.86 959.982 940.786 966.607L933.262 529.821L942.386 310.563Z" fill="#EEA886"/>
<path d="M988.421 563.585L971.871 648.554L936.624 725.203L933.519 558.4L988.421 563.585Z" fill="url(#paint2_linear_562_2104)"/>
<path d="M963.707 154.898H339.543C324.744 154.898 312.748 166.891 312.748 181.685V554.944C312.748 569.738 324.744 581.731 339.543 581.731H963.707C978.506 581.731 990.502 569.738 990.502 554.944V181.685C990.502 166.891 978.506 154.898 963.707 154.898Z" fill="#1A6683"/>
<path d="M963.707 154.898H339.543C324.744 154.898 312.748 166.891 312.748 181.685V554.944C312.748 569.738 324.744 581.731 339.543 581.731H963.707C978.506 581.731 990.502 569.738 990.502 554.944V181.685C990.502 166.891 978.506 154.898 963.707 154.898Z" fill="url(#paint3_linear_562_2104)"/>
<path d="M963.707 137.776H339.543C324.744 137.776 312.748 149.769 312.748 164.563V537.822C312.748 552.616 324.744 564.609 339.543 564.609H963.707C978.506 564.609 990.502 552.616 990.502 537.822V164.563C990.502 149.769 978.506 137.776 963.707 137.776Z" fill="#1A6683"/>
<path d="M372.773 315.716C383.561 303.747 383.561 303.747 395.758 289.409L447.716 228.602C455.888 219.681 463.379 210.16 470.125 200.119H519.202C517.824 213.312 517.193 226.572 517.313 239.835V317.636H524.26C532.192 317.561 540.109 316.92 547.95 315.716V359.305C540.165 358.339 532.328 357.858 524.484 357.865H517.313V369.834C517.092 379.685 517.724 389.536 519.202 399.278H469.901C471.238 389.36 471.869 379.361 471.79 369.354V357.801H403.922C388.331 357.801 381.512 358.025 372.773 358.729V315.716ZM472.014 290.369C472.014 279.584 472.494 266.43 473.455 255.901C468.653 262.59 465.067 267.391 458.601 275.52L423.546 318.116H471.918L472.014 290.369Z" fill="#FF5959"/>
<path d="M587.55 381.324C579.909 373.806 573.951 364.752 570.071 354.761C563.762 337.176 560.597 318.619 560.723 299.938C560.723 274.783 566.71 248.732 575.834 233.627C590.432 209.208 615.338 195.798 645.495 195.798C668.736 195.798 689.097 203.703 703.695 218.201C711.346 225.711 717.305 234.767 721.174 244.764C727.518 262.417 730.682 281.054 730.522 299.81C730.522 324.965 724.535 351.304 715.444 366.378C701.07 390.317 675.907 403.726 645.495 403.726C622.029 403.598 602.181 395.917 587.55 381.324ZM609.96 298.114C609.96 340.967 622.157 362.986 645.879 362.986C669.601 362.986 681.318 341.447 681.318 298.978C681.189 257.789 668.64 236.187 645.495 236.187C622.989 236.187 609.832 259.006 609.832 298.018L609.96 298.114Z" fill="#FF5959"/>
<path d="M742.943 315.716C753.732 303.747 753.732 303.747 765.929 289.409L817.918 228.602C826.038 219.678 833.475 210.157 840.168 200.119H889.276C887.871 213.31 887.229 226.571 887.355 239.835V317.636H894.302C902.234 317.561 910.151 316.92 917.992 315.716V359.305C910.208 358.339 902.37 357.858 894.526 357.865H887.355V369.834C887.127 379.686 887.77 389.539 889.276 399.278H839.944C841.293 389.361 841.935 379.362 841.864 369.354V357.801H774.092C758.534 357.801 751.683 358.025 742.943 358.729V315.716ZM842.184 290.369C842.184 279.584 842.665 266.43 843.625 255.901C838.823 262.59 835.238 267.391 828.771 275.52L793.716 318.116H842.088L842.184 290.369Z" fill="#FF5959"/>
<path d="M375.078 469.398C379.11 468.738 383.19 468.417 387.275 468.438C392.231 468.061 397.153 469.519 401.105 472.534C402.529 473.836 403.653 475.432 404.399 477.211C405.146 478.991 405.496 480.911 405.427 482.839C405.525 484.76 405.239 486.68 404.585 488.488C403.93 490.296 402.921 491.956 401.617 493.368C399.599 495.241 397.223 496.685 394.631 497.615C392.04 498.544 389.287 498.94 386.539 498.777C384.83 498.839 383.12 498.689 381.449 498.329V518.075H375.046L375.078 469.398ZM381.481 493.144C383.201 493.542 384.966 493.714 386.731 493.656C394.414 493.656 399.088 489.944 399.088 483.127C399.088 476.311 394.478 473.526 387.467 473.526C385.459 473.472 383.451 473.643 381.481 474.038V493.144Z" fill="#FF5959"/>
<path d="M415.735 502.586L410.613 518.075H404.21L420.921 468.822H428.54L445.347 518.075H438.56L433.31 502.586H415.735ZM431.741 497.625L426.907 483.447C425.819 480.247 425.083 477.303 424.346 474.454C423.642 477.367 422.81 480.375 421.881 483.351L417.047 497.625H431.741Z" fill="#FF5959"/>
<path d="M488.981 515.867C484.123 517.621 479.004 518.541 473.839 518.588C470.473 518.911 467.077 518.494 463.89 517.365C460.703 516.236 457.802 514.422 455.391 512.052C452.98 509.682 451.118 506.812 449.936 503.645C448.754 500.478 448.28 497.09 448.548 493.721C448.548 479.031 458.697 468.31 475.216 468.31C479.427 468.206 483.613 468.98 487.509 470.582L485.972 475.767C482.545 474.266 478.827 473.545 475.087 473.654C463.082 473.654 455.271 481.111 455.271 493.433C455.271 505.754 462.794 513.339 474.287 513.339C477.178 513.491 480.069 513.033 482.771 511.995V497.337H472.751V492.216H488.981V515.867Z" fill="#FF5959"/>
<path d="M524.196 494.969H504.988V512.731H526.341V518.075H498.617V468.822H525.252V474.166H505.052V489.72H524.26L524.196 494.969Z" fill="#FF5959"/>
<path d="M550.191 518.075V468.822H557.138L572.92 493.721C576.207 498.864 579.169 504.209 581.788 509.722C581.212 503.322 581.052 497.177 581.052 489.496V468.886H587.07V518.139H580.668L565.013 493.145C561.616 487.849 558.538 482.356 555.793 476.695H555.569C555.953 482.935 556.081 488.856 556.081 497.017V518.075H550.191Z" fill="#FF5959"/>
<path d="M640.372 492.921C640.372 509.883 630.064 518.876 617.483 518.876C604.902 518.876 595.33 508.794 595.33 493.881C595.33 478.231 604.934 468.022 618.219 468.022C631.505 468.022 640.372 478.327 640.372 492.921ZM602.148 493.721C602.148 504.25 607.847 513.691 617.867 513.691C627.887 513.691 633.65 504.41 633.65 493.209C633.65 483.447 628.527 473.206 617.931 473.206C607.335 473.206 602.148 482.935 602.148 493.721Z" fill="#FF5959"/>
<path d="M656.155 474.23H641.173V468.822H677.668V474.23H662.59V518.075H656.187L656.155 474.23Z" fill="#FF5959"/>
<path d="M698.637 468.822H725.176V474.166H705.007V490.52H723.639V495.769H705.007V518.171H698.605L698.637 468.822Z" fill="#FF5959"/>
<path d="M776.333 492.921C776.333 509.883 766.025 518.876 753.475 518.876C740.446 518.876 731.322 508.794 731.322 493.881C731.322 478.231 740.926 468.022 754.18 468.022C767.433 468.022 776.333 478.327 776.333 492.921ZM738.109 493.721C738.109 504.25 743.807 513.691 753.828 513.691C763.848 513.691 769.61 504.41 769.61 493.209C769.61 483.447 764.488 473.206 753.892 473.206C743.295 473.206 738.109 482.935 738.109 493.721Z" fill="#FF5959"/>
<path d="M790.963 468.822V497.977C790.963 509.018 795.861 513.691 802.456 513.691C809.755 513.691 814.429 508.858 814.429 497.977V468.822H820.832V497.625C820.832 512.763 812.86 518.972 802.2 518.972C792.116 518.972 784.497 513.211 784.497 497.913V468.918L790.963 468.822Z" fill="#FF5959"/>
<path d="M831.908 518.075V468.822H838.855L854.638 493.721C857.927 498.857 860.879 504.202 863.473 509.722H863.633C863.057 503.322 862.897 497.177 862.897 489.496V468.886H868.884V518.139H862.481L846.858 493.145C843.45 487.856 840.371 482.362 837.639 476.695H837.415C837.767 482.935 837.927 488.856 837.927 497.017V518.075H831.908Z" fill="#FF5959"/>
<path d="M879.928 469.462C884.411 468.789 888.937 468.446 893.47 468.438C902.594 468.438 909.124 470.582 913.414 474.582C915.782 476.856 917.629 479.615 918.828 482.67C920.027 485.725 920.55 489.004 920.361 492.28C920.543 495.793 920.01 499.306 918.794 502.607C917.578 505.908 915.704 508.927 913.286 511.483C908.676 516.091 901.057 518.587 891.485 518.587C887.621 518.558 883.762 518.302 879.928 517.819V469.462ZM886.331 513.019C888.45 513.333 890.592 513.461 892.734 513.403C906.339 513.403 913.702 505.786 913.702 492.504C913.702 480.887 907.3 473.494 893.758 473.494C891.255 473.447 888.754 473.673 886.299 474.166L886.331 513.019Z" fill="#FF5959"/>
<path d="M341.464 300.995C344.211 302.362 346.551 304.425 348.251 306.979C349.657 309.98 350.348 313.267 350.268 316.58L351.228 337.223C351.662 340.619 351.256 344.07 350.043 347.272C349.397 348.852 348.216 350.154 346.705 350.95C345.195 351.745 343.453 351.984 341.784 351.624C343.01 355.642 343.406 359.867 342.95 364.042C342.493 368.218 341.192 372.257 339.127 375.915C338.092 377.456 337.283 379.137 336.726 380.908C336.46 383.044 336.568 385.21 337.046 387.308C337.772 392.486 337.385 397.759 335.911 402.776C334.437 407.792 331.91 412.437 328.498 416.4C327.455 417.698 326.173 418.785 324.721 419.6C322.816 420.412 320.772 420.847 318.702 420.88L309.29 421.68C308.825 421.833 308.331 421.877 307.846 421.809C307.361 421.74 306.898 421.562 306.493 421.287C306.088 421.012 305.752 420.647 305.509 420.222C305.267 419.796 305.126 419.321 305.097 418.832C297.95 396.17 294.703 372.46 295.493 348.712C295.863 336.746 297.298 324.836 299.782 313.124C301.287 306.275 304.232 295.842 311.563 293.058C321.039 289.729 333.268 296.29 341.464 300.995Z" fill="#EEA886"/>
<path d="M959.705 300.994C956.959 302.362 954.618 304.425 952.919 306.979C951.512 309.98 950.822 313.267 950.902 316.58L949.941 337.223C949.507 340.619 949.913 344.07 951.126 347.272C951.772 348.852 952.954 350.154 954.464 350.949C955.974 351.745 957.716 351.984 959.385 351.624C958.162 355.641 957.764 359.863 958.215 364.038C958.666 368.212 959.957 372.252 962.01 375.915C963.068 377.447 963.888 379.13 964.443 380.908C964.714 383.045 964.595 385.213 964.091 387.308C963.38 392.488 963.777 397.76 965.256 402.775C966.735 407.79 969.262 412.434 972.671 416.4C973.714 417.698 974.996 418.784 976.448 419.6C978.353 420.412 980.397 420.847 982.467 420.88L991.975 421.808C992.44 421.961 992.934 422.005 993.419 421.937C993.904 421.868 994.367 421.69 994.772 421.415C995.177 421.139 995.514 420.775 995.756 420.35C995.998 419.924 996.139 419.449 996.169 418.96C1003.31 396.298 1006.56 372.588 1005.77 348.84C1005.41 336.871 1003.96 324.96 1001.45 313.252C999.978 306.403 998.249 297.826 990.982 295.042C981.41 291.553 967.901 296.29 959.705 300.994Z" fill="#EEA886"/>
</g>
<defs>
<linearGradient id="paint0_linear_562_2104" x1="645.943" y1="828.895" x2="655.253" y2="1093.05" gradientUnits="userSpaceOnUse">
<stop stop-opacity="0"/>
<stop offset="0.95"/>
</linearGradient>
<linearGradient id="paint1_linear_562_2104" x1="360.96" y1="741.301" x2="351.65" y2="373.003" gradientUnits="userSpaceOnUse">
<stop stop-opacity="0"/>
<stop offset="0.99"/>
</linearGradient>
<linearGradient id="paint2_linear_562_2104" x1="963.771" y1="690.543" x2="957.564" y2="459.508" gradientUnits="userSpaceOnUse">
<stop stop-opacity="0"/>
<stop offset="0.95"/>
</linearGradient>
<linearGradient id="paint3_linear_562_2104" x1="640.212" y1="763.127" x2="654.706" y2="261.694" gradientUnits="userSpaceOnUse">
<stop stop-opacity="0"/>
<stop offset="0.99"/>
</linearGradient>
<clipPath id="clip0_562_2104">
<rect width="1298" height="978" fill="white"/>
</clipPath>
</defs>
</svg>
