<svg width="745" height="705" viewBox="0 0 745 705" fill="none" xmlns="http://www.w3.org/2000/svg">
<path d="M698.118 119.03V536.141C698.071 540.996 697.064 545.793 695.157 550.259C693.25 554.724 690.48 558.768 687.006 562.16C683.531 565.551 679.421 568.223 674.911 570.021C670.402 571.82 665.581 572.71 660.726 572.64H41.4474C36.3669 572.655 31.3355 571.646 26.6533 569.674C21.971 567.703 17.7338 564.808 14.1943 561.163C7.67816 554.531 4.03576 545.6 4.0555 536.303V119.03C4.10307 114.175 5.10923 109.377 7.0162 104.912C8.92317 100.447 11.6934 96.4025 15.1678 93.011C18.6422 89.6195 22.7523 86.9477 27.2621 85.1491C31.772 83.3505 36.5927 82.4605 41.4474 82.5302H660.726C665.581 82.4605 670.402 83.3505 674.911 85.1491C679.421 86.9477 683.531 89.6195 687.006 93.011C690.48 96.4025 693.25 100.447 695.157 104.912C697.064 109.377 698.071 114.175 698.118 119.03Z" fill="#1A6683"/>
<path d="M660.726 576.494H41.4475C35.8249 576.502 30.2578 575.383 25.0752 573.203C19.8926 571.022 15.1998 567.825 11.2744 563.8C4.04232 556.394 -0.00434811 546.452 3.50602e-06 536.101V119.03C0.0529498 113.644 1.16767 108.322 3.28033 103.367C5.39299 98.4123 8.46211 93.9229 12.312 90.1559C16.1619 86.3889 20.7169 83.4182 25.7164 81.4138C30.7159 79.4095 36.0616 78.4108 41.4475 78.4751H660.726C666.112 78.4108 671.458 79.4095 676.457 81.4138C681.457 83.4182 686.012 86.3889 689.862 90.1559C693.712 93.9229 696.781 98.4123 698.893 103.367C701.006 108.322 702.121 113.644 702.174 119.03V536.101C702.024 546.95 697.576 557.297 689.805 564.87C682.034 572.443 671.576 576.623 660.726 576.494ZM41.4475 86.7484C37.1267 86.684 32.8357 87.4728 28.8203 89.0695C24.8049 90.6662 21.144 93.0394 18.0472 96.0533C14.9505 99.0671 12.4788 102.662 10.7738 106.633C9.06877 110.604 8.16392 114.872 8.11105 119.193V536.101C8.10445 544.35 11.3375 552.273 17.1143 558.163C20.2838 561.403 24.0694 563.976 28.2483 565.731C32.4272 567.486 36.915 568.388 41.4475 568.382H660.726C665.047 568.447 669.338 567.658 673.353 566.061C677.369 564.465 681.03 562.091 684.126 559.078C687.223 556.064 689.695 552.468 691.4 548.498C693.105 544.527 694.01 540.259 694.063 535.938V119.03C694.01 114.709 693.105 110.441 691.4 106.471C689.695 102.5 687.223 98.9049 684.126 95.8911C681.03 92.8772 677.369 90.504 673.353 88.9072C669.338 87.3105 665.047 86.5218 660.726 86.5861L41.4475 86.7484Z" fill="#093F68"/>
<path d="M479.363 700.064H222.811L249.942 572.478H452.232L479.363 700.064Z" fill="#1A6683"/>
<path d="M479.363 704.12H222.811C222.212 704.116 221.621 703.98 221.081 703.72C220.541 703.461 220.065 703.085 219.688 702.62C219.313 702.153 219.045 701.61 218.905 701.028C218.765 700.446 218.755 699.84 218.877 699.254L246.008 571.626C246.206 570.704 246.719 569.879 247.459 569.295C248.2 568.71 249.121 568.401 250.064 568.422H452.353C453.296 568.401 454.217 568.71 454.958 569.295C455.698 569.879 456.211 570.704 456.409 571.626L483.54 699.254C483.662 699.84 483.652 700.446 483.512 701.028C483.372 701.61 483.104 702.153 482.729 702.62C482.327 703.118 481.812 703.514 481.226 703.774C480.641 704.035 480.003 704.154 479.363 704.12ZM227.921 696.009H474.415L449.028 576.533H253.227L227.921 696.009Z" fill="#093F68"/>
<path d="M351.087 534.599C359.8 534.599 366.863 527.536 366.863 518.823C366.863 510.111 359.8 503.047 351.087 503.047C342.374 503.047 335.311 510.111 335.311 518.823C335.311 527.536 342.374 534.599 351.087 534.599Z" fill="#093F68"/>
<path d="M351.087 538.615C347.165 538.615 343.33 537.452 340.069 535.272C336.808 533.093 334.266 529.996 332.765 526.372C331.264 522.749 330.871 518.761 331.636 514.914C332.402 511.067 334.29 507.534 337.064 504.76C339.837 501.987 343.371 500.098 347.218 499.333C351.065 498.568 355.052 498.96 358.676 500.461C362.3 501.962 365.397 504.504 367.576 507.765C369.755 511.027 370.918 514.861 370.918 518.783C370.908 524.04 368.815 529.078 365.098 532.794C361.381 536.511 356.343 538.604 351.087 538.615ZM351.087 507.063C348.769 507.063 346.503 507.75 344.575 509.038C342.648 510.326 341.146 512.156 340.259 514.298C339.371 516.44 339.139 518.796 339.592 521.07C340.044 523.343 341.16 525.432 342.799 527.071C344.438 528.71 346.527 529.826 348.8 530.278C351.074 530.731 353.43 530.499 355.572 529.611C357.714 528.724 359.544 527.222 360.832 525.295C362.12 523.367 362.807 521.101 362.807 518.783C362.797 515.682 361.557 512.711 359.36 510.522C357.163 508.333 354.188 507.103 351.087 507.103V507.063Z" fill="#093F68"/>
<path d="M698.118 117.285V471.333H4.05554V117.285C4.10311 112.43 5.10927 107.632 7.01624 103.167C8.92322 98.7022 11.6934 94.6578 15.1678 91.2663C18.6422 87.8749 22.7524 85.2031 27.2622 83.4045C31.772 81.6059 36.5927 80.7159 41.4475 80.7855H660.726C665.581 80.7159 670.402 81.6059 674.912 83.4045C679.421 85.2031 683.531 87.8749 687.006 91.2663C690.48 94.6578 693.251 98.7022 695.157 103.167C697.064 107.632 698.071 112.43 698.118 117.285Z" fill="#EEF8FB"/>
<path d="M698.118 475.389H4.05552C2.97993 475.389 1.94839 474.961 1.18783 474.201C0.427274 473.44 0 472.409 0 471.333V117.286C0.0529463 111.9 1.16766 106.577 3.28032 101.622C5.39298 96.6676 8.46211 92.1783 12.312 88.4113C16.1619 84.6443 20.7169 81.6735 25.7164 79.6692C30.7159 77.6648 36.0616 76.6662 41.4475 76.7305H660.726C666.112 76.6662 671.458 77.6648 676.457 79.6692C681.457 81.6735 686.012 84.6443 689.862 88.4113C693.712 92.1783 696.781 96.6676 698.893 101.622C701.006 106.577 702.121 111.9 702.174 117.286V471.333C702.174 471.866 702.069 472.393 701.865 472.885C701.661 473.377 701.362 473.824 700.986 474.201C700.609 474.577 700.162 474.876 699.67 475.08C699.178 475.284 698.651 475.389 698.118 475.389ZM8.11105 467.278H694.063V117.286C694.01 112.965 693.105 108.697 691.4 104.726C689.695 100.756 687.223 97.1603 684.126 94.1465C681.03 91.1326 677.369 88.7593 673.353 87.1626C669.338 85.5659 665.047 84.7772 660.726 84.8415H41.4475C37.1267 84.7772 32.8357 85.5659 28.8203 87.1626C24.8049 88.7593 21.144 91.1326 18.0472 94.1465C14.9505 97.1603 12.4788 100.756 10.7738 104.726C9.06877 108.697 8.16392 112.965 8.11105 117.286V467.278Z" fill="#093F68"/>
<path d="M600.015 4.05493H102.199V471.373H600.015V4.05493Z" fill="white"/>
<path d="M599.974 475.389H102.199C101.124 475.389 100.092 474.961 99.3316 474.201C98.5711 473.44 98.1438 472.409 98.1438 471.333V4.05554C98.1438 2.97995 98.5711 1.94841 99.3316 1.18785C100.092 0.42729 101.124 0 102.199 0H599.974C601.05 0 602.082 0.42729 602.842 1.18785C603.603 1.94841 604.03 2.97995 604.03 4.05554V471.333C604.03 472.409 603.603 473.44 602.842 474.201C602.082 474.961 601.05 475.389 599.974 475.389ZM106.255 467.278H595.919V8.11107H106.255V467.278Z" fill="#093F68"/>
<path d="M600.015 4.05493H102.199V39.8247H600.015V4.05493Z" fill="#1A6683"/>
<path d="M599.974 43.8402H102.199C101.124 43.8402 100.092 43.413 99.3316 42.6524C98.5711 41.8918 98.1438 40.8603 98.1438 39.7847V4.05554C98.1438 2.97995 98.5711 1.94841 99.3316 1.18785C100.092 0.42729 101.124 0 102.199 0H599.974C601.05 0 602.082 0.42729 602.842 1.18785C603.603 1.94841 604.03 2.97995 604.03 4.05554V39.7847C604.03 40.8603 603.603 41.8918 602.842 42.6524C602.082 43.413 601.05 43.8402 599.974 43.8402ZM106.255 35.7292H595.919V8.11107H106.255V35.7292Z" fill="#093F68"/>
<path d="M216.484 288.389H157.071V264.056L212.631 179.458H244.183V264.056H261.865V288.389H244.386V315.561H216.687L216.484 288.389ZM216.484 217.255H216.078L185.905 264.177H216.484V217.255Z" fill="#093F68"/>
<path d="M499.925 288.389H440.511V264.056L496.072 179.458H527.624V264.056H545.103V288.389H527.624V315.561H499.925V288.389ZM499.925 217.255H499.56L469.346 264.177H499.925V217.255Z" fill="#093F68"/>
<path d="M400.118 233.801C400.118 233.801 380.53 224.271 348.207 236.113C315.885 247.955 307.125 267.949 307.125 267.949C311.653 280.28 320.895 290.308 332.816 295.826C344.738 301.344 358.364 301.9 370.695 297.371C383.027 292.843 393.055 283.602 398.573 271.68C404.09 259.758 404.646 246.133 400.118 233.801Z" fill="#093F68"/>
<path d="M353.601 304.489C342.632 304.462 331.934 301.078 322.945 294.792C313.955 288.507 307.104 279.621 303.313 269.328C302.918 268.352 302.918 267.262 303.313 266.286C303.678 265.434 313.127 244.63 346.707 232.301C380.287 219.972 400.929 229.705 401.781 230.151C402.718 230.607 403.444 231.406 403.809 232.382C406.767 240.486 407.729 249.183 406.613 257.738C405.498 266.292 402.337 274.452 397.4 281.526C392.462 288.601 385.892 294.381 378.247 298.378C370.602 302.375 362.106 304.471 353.48 304.489H353.601ZM311.586 267.989C316.073 278.847 324.585 287.549 335.342 292.273C346.098 296.998 358.265 297.379 369.296 293.336C380.351 289.284 389.405 281.105 394.555 270.517C399.705 259.929 400.551 247.757 396.914 236.559C391.966 234.815 374.893 230.314 349.627 239.601C324.361 248.888 314.181 263.691 311.586 268.192V267.989Z" fill="#093F68"/>
<path d="M366.064 284.796C407.484 269.589 435.794 242.91 429.294 225.206C422.794 207.502 383.947 205.478 342.526 220.685C301.105 235.892 272.796 262.572 279.296 280.276C285.795 297.979 324.643 300.003 366.064 284.796Z" fill="#1A6683"/>
<path d="M314.587 298.973C294.309 298.973 279.588 293.052 275.411 281.656C268.03 261.378 296.864 232.989 341.07 216.767C359.573 209.581 379.299 206.068 399.145 206.426C417.273 207.399 429.318 213.523 433.049 223.702C436.78 233.882 431.548 246.332 418.368 258.742C403.459 271.918 386.112 282.045 367.309 288.55C350.463 295.023 332.629 298.548 314.587 298.973ZM394.075 214.496C376.892 214.926 359.91 218.301 343.868 224.473C301.285 240.127 278.006 265.028 283.035 278.857C288.064 292.687 322.009 296.58 364.592 280.926C382.329 274.816 398.707 265.311 412.812 252.943C423.316 243.006 427.939 233.395 425.425 226.541C422.91 219.728 413.258 215.388 398.739 214.618C397.279 214.537 395.698 214.496 394.156 214.496H394.075Z" fill="#093F68"/>
<path d="M395.373 220.905C395.373 220.905 386.613 240.817 354.291 252.7C321.968 264.583 302.38 255.052 302.38 255.052C297.852 242.721 298.408 229.095 303.925 217.173C309.443 205.252 319.471 196.01 331.803 191.482C344.134 186.954 357.76 187.51 369.682 193.028C381.603 198.545 390.845 208.573 395.373 220.905Z" fill="#FF5959"/>
<path d="M323.104 262.838C315.411 263.104 307.75 261.721 300.636 258.783C300.163 258.571 299.739 258.263 299.39 257.879C299.041 257.495 298.775 257.044 298.608 256.552C293.709 243.215 294.309 228.478 300.275 215.582C306.242 202.687 317.087 192.69 330.424 187.791C343.761 182.892 358.499 183.491 371.394 189.458C384.289 195.424 394.286 206.269 399.185 219.607C399.58 220.582 399.58 221.673 399.185 222.648C398.78 223.54 389.33 244.305 355.791 256.634C345.35 260.626 334.282 262.727 323.104 262.838ZM305.624 252.091C310.532 253.795 327.605 258.296 352.912 249.009C378.218 239.722 388.357 225.244 390.953 220.62C386.28 210.053 377.76 201.662 367.123 197.151C356.486 192.64 344.531 192.348 333.687 196.335C322.843 200.321 313.923 208.287 308.741 218.613C303.558 228.94 302.502 240.852 305.787 251.929L305.624 252.091Z" fill="#093F68"/>
<path d="M429.723 102.118L152.366 100.617C151.29 100.617 150.259 100.19 149.498 99.4296C148.738 98.669 148.311 97.6375 148.311 96.5619C148.311 95.4863 148.738 94.4547 149.498 93.6942C150.259 92.9336 151.29 92.5063 152.366 92.5063L429.683 94.1691C430.759 94.1691 431.79 94.5964 432.551 95.357C433.311 96.1175 433.738 97.1491 433.738 98.2247C433.738 99.3002 433.311 100.332 432.551 101.092C431.79 101.853 430.759 102.28 429.683 102.28L429.723 102.118Z" fill="#DFEAEF"/>
<path d="M120.165 26.8884C123.01 26.8884 125.316 24.5825 125.316 21.7379C125.316 18.8934 123.01 16.5874 120.165 16.5874C117.321 16.5874 115.015 18.8934 115.015 21.7379C115.015 24.5825 117.321 26.8884 120.165 26.8884Z" fill="#093F68"/>
<path d="M136.144 26.8884C138.988 26.8884 141.294 24.5825 141.294 21.7379C141.294 18.8934 138.988 16.5874 136.144 16.5874C133.299 16.5874 130.993 18.8934 130.993 21.7379C130.993 24.5825 133.299 26.8884 136.144 26.8884Z" fill="#093F68"/>
<path d="M152.123 26.8884C154.967 26.8884 157.273 24.5825 157.273 21.7379C157.273 18.8934 154.967 16.5874 152.123 16.5874C149.278 16.5874 146.972 18.8934 146.972 21.7379C146.972 24.5825 149.278 26.8884 152.123 26.8884Z" fill="#093F68"/>
<path d="M361.023 139.631L152.366 138.374C151.29 138.374 150.259 137.947 149.498 137.186C148.738 136.426 148.311 135.394 148.311 134.319C148.311 133.243 148.738 132.212 149.498 131.451C150.259 130.69 151.29 130.263 152.366 130.263L360.982 131.52C362.058 131.52 363.089 131.948 363.85 132.708C364.611 133.469 365.038 134.5 365.038 135.576C365.038 136.652 364.611 137.683 363.85 138.444C363.089 139.204 362.058 139.631 360.982 139.631H361.023Z" fill="#DFEAEF"/>
<path d="M505.643 658.982H196.531C185.175 658.982 175.969 668.188 175.969 679.543C175.969 690.899 185.175 700.105 196.531 700.105H505.643C516.999 700.105 526.204 690.899 526.204 679.543C526.204 668.188 516.999 658.982 505.643 658.982Z" fill="#1A6683"/>
<path d="M505.643 704.12H196.531C193.217 704.255 189.909 703.718 186.808 702.543C183.706 701.367 180.874 699.577 178.482 697.28C176.089 694.983 174.186 692.226 172.885 689.174C171.585 686.123 170.915 682.84 170.915 679.523C170.915 676.206 171.585 672.924 172.885 669.872C174.186 666.821 176.089 664.064 178.482 661.767C180.874 659.469 183.706 657.679 186.808 656.504C189.909 655.328 193.217 654.792 196.531 654.927H505.643C508.957 654.792 512.264 655.328 515.366 656.504C518.467 657.679 521.299 659.469 523.692 661.767C526.084 664.064 527.988 666.821 529.288 669.872C530.589 672.924 531.259 676.206 531.259 679.523C531.259 682.84 530.589 686.123 529.288 689.174C527.988 692.226 526.084 694.983 523.692 697.28C521.299 699.577 518.467 701.367 515.366 702.543C512.264 703.718 508.957 704.255 505.643 704.12ZM196.531 663.038C194.297 662.927 192.064 663.271 189.967 664.05C187.871 664.828 185.954 666.024 184.334 667.566C182.714 669.108 181.424 670.963 180.543 673.018C179.661 675.074 179.207 677.287 179.207 679.523C179.207 681.76 179.661 683.973 180.543 686.028C181.424 688.084 182.714 689.939 184.334 691.481C185.954 693.022 187.871 694.219 189.967 694.997C192.064 695.776 194.297 696.12 196.531 696.009H505.643C507.877 696.12 510.109 695.776 512.206 694.997C514.303 694.219 516.219 693.022 517.839 691.481C519.46 689.939 520.749 688.084 521.631 686.028C522.512 683.973 522.967 681.76 522.967 679.523C522.967 677.287 522.512 675.074 521.631 673.018C520.749 670.963 519.46 669.108 517.839 667.566C516.219 666.024 514.303 664.828 512.206 664.05C510.109 663.271 507.877 662.927 505.643 663.038H196.531Z" fill="#093F68"/>
<path d="M729.873 386.127H409.933C403.84 386.127 398.901 391.066 398.901 397.158V487.15C398.901 493.242 403.84 498.181 409.933 498.181H729.873C735.965 498.181 740.904 493.242 740.904 487.15V397.158C740.904 391.066 735.965 386.127 729.873 386.127Z" fill="#FACF5A"/>
<path d="M729.913 502.114H409.933C405.935 502.104 402.104 500.511 399.277 497.684C396.45 494.857 394.857 491.026 394.846 487.028V396.995C394.857 392.997 396.45 389.166 399.277 386.339C402.104 383.512 405.935 381.919 409.933 381.909H729.913C733.911 381.919 737.743 383.512 740.57 386.339C743.396 389.166 744.989 392.997 745 396.995V487.028C744.989 491.026 743.396 494.857 740.57 497.684C737.743 500.511 733.911 502.104 729.913 502.114ZM409.933 390.02C408.086 390.03 406.318 390.769 405.012 392.075C403.706 393.38 402.968 395.149 402.957 396.995V487.028C402.968 488.875 403.706 490.643 405.012 491.949C406.318 493.254 408.086 493.993 409.933 494.003H729.913C731.76 493.993 733.528 493.254 734.834 491.949C736.14 490.643 736.878 488.875 736.889 487.028V396.995C736.889 395.145 736.154 393.371 734.846 392.063C733.538 390.755 731.764 390.02 729.913 390.02H409.933Z" fill="#093F68"/>
<path d="M424.33 425.059H434.631L449.271 448.987V425.059H456.855V459.491H446.919L431.873 435.157V459.491H424.289L424.33 425.059Z" fill="#093F68"/>
<path d="M462.127 442.174C462.083 439.606 462.552 437.055 463.506 434.671C464.425 432.492 465.809 430.54 467.561 428.953C469.246 427.34 471.249 426.097 473.442 425.303C478.262 423.628 483.506 423.628 488.326 425.303C490.514 426.107 492.514 427.349 494.206 428.953C495.959 430.54 497.343 432.492 498.262 434.671C500.099 439.49 500.099 444.817 498.262 449.636C497.352 451.82 495.967 453.774 494.206 455.354C492.514 456.958 490.514 458.2 488.326 459.004C483.506 460.679 478.262 460.679 473.442 459.004C471.249 458.21 469.246 456.967 467.561 455.354C465.801 453.774 464.415 451.82 463.506 449.636C462.556 447.264 462.087 444.728 462.127 442.174ZM469.995 442.174C469.989 443.681 470.25 445.178 470.765 446.594C471.221 447.908 471.952 449.109 472.91 450.116C473.869 451.124 475.032 451.914 476.321 452.434C477.715 452.986 479.203 453.261 480.701 453.245C482.213 453.262 483.714 452.986 485.122 452.434C486.386 451.894 487.53 451.108 488.488 450.122C489.445 449.103 490.189 447.904 490.678 446.594C491.179 445.175 491.426 443.679 491.408 442.174C491.423 440.656 491.176 439.146 490.678 437.713C490.189 436.403 489.445 435.204 488.488 434.184C487.53 433.198 486.386 432.413 485.122 431.873C483.714 431.321 482.213 431.045 480.701 431.061C479.203 431.045 477.715 431.321 476.321 431.873C475.032 432.393 473.869 433.183 472.91 434.19C471.952 435.198 471.221 436.399 470.765 437.713C470.254 439.144 469.993 440.653 469.995 442.174Z" fill="#093F68"/>
<path d="M511.118 431.629H501.141V425.059H528.394V431.751H518.58V459.491H510.956L511.118 431.629Z" fill="#093F68"/>
<path d="M547.09 425.059H570.085V432.075H554.674V439.051H569.031V446.067H554.674V459.491H547.09V425.059Z" fill="#093F68"/>
<path d="M573.816 442.174C573.772 439.606 574.241 437.055 575.195 434.671C576.114 432.492 577.498 430.54 579.251 428.953C580.935 427.34 582.938 426.097 585.131 425.303C589.951 423.628 595.195 423.628 600.015 425.303C602.203 426.107 604.204 427.349 605.895 428.953C607.648 430.54 609.032 432.492 609.951 434.671C611.788 439.49 611.788 444.817 609.951 449.636C609.041 451.82 607.656 453.774 605.895 455.354C604.204 456.958 602.203 458.2 600.015 459.004C595.195 460.679 589.951 460.679 585.131 459.004C582.938 458.21 580.935 456.967 579.251 455.354C577.49 453.774 576.105 451.82 575.195 449.636C574.245 447.264 573.777 444.728 573.816 442.174ZM581.684 442.174C581.678 443.681 581.939 445.178 582.454 446.594C582.91 447.908 583.641 449.109 584.6 450.116C585.558 451.124 586.721 451.914 588.011 452.434C589.404 452.986 590.892 453.261 592.391 453.245C593.903 453.262 595.403 452.986 596.811 452.434C598.075 451.894 599.219 451.108 600.177 450.122C601.134 449.103 601.878 447.904 602.367 446.594C602.868 445.175 603.115 443.679 603.097 442.174C603.113 440.656 602.866 439.146 602.367 437.713C601.878 436.403 601.134 435.204 600.177 434.184C599.219 433.198 598.075 432.413 596.811 431.873C595.403 431.321 593.903 431.045 592.391 431.061C590.892 431.045 589.404 431.321 588.011 431.873C586.721 432.393 585.558 433.183 584.6 434.19C583.641 435.198 582.91 436.399 582.454 437.713C581.943 439.144 581.682 440.653 581.684 442.174Z" fill="#093F68"/>
<path d="M645.194 446.107C645.22 448.023 644.918 449.93 644.301 451.744C643.697 453.405 642.759 454.923 641.544 456.205C640.264 457.523 638.715 458.546 637.001 459.207C632.915 460.613 628.476 460.613 624.389 459.207C622.704 458.565 621.179 457.566 619.919 456.278C618.659 454.989 617.693 453.443 617.089 451.744C616.458 449.932 616.143 448.026 616.156 446.107V425.059H623.74V445.945C623.73 446.956 623.908 447.96 624.267 448.906C624.578 449.777 625.06 450.577 625.686 451.258C626.316 451.919 627.076 452.444 627.917 452.799C628.795 453.196 629.752 453.39 630.715 453.367C631.666 453.391 632.61 453.197 633.473 452.799C634.302 452.443 635.048 451.918 635.663 451.258C636.289 450.569 636.783 449.772 637.123 448.906C637.452 447.953 637.617 446.952 637.61 445.945V425.059H645.194V446.107Z" fill="#093F68"/>
<path d="M652.21 425.059H662.551L677.192 448.987V425.059H684.775V459.491H674.839L659.834 435.157V459.491H652.25L652.21 425.059Z" fill="#093F68"/>
<path d="M691.751 425.06H703.147C705.799 425.033 708.443 425.346 711.015 425.992C713.354 426.536 715.56 427.542 717.504 428.953C719.386 430.373 720.901 432.222 721.924 434.347C723.074 436.892 723.629 439.666 723.546 442.458C723.598 445.008 723.056 447.534 721.965 449.839C720.942 451.906 719.49 453.731 717.706 455.192C715.851 456.65 713.75 457.762 711.501 458.477C709.125 459.215 706.649 459.585 704.161 459.572H691.751V425.06ZM699.335 452.516H703.39C705.029 452.521 706.663 452.331 708.257 451.948C709.72 451.669 711.104 451.074 712.313 450.204C713.422 449.326 714.31 448.201 714.908 446.919C715.585 445.36 715.904 443.67 715.841 441.971C715.887 440.457 715.567 438.955 714.908 437.591C714.297 436.386 713.424 435.333 712.353 434.509C711.226 433.663 709.945 433.043 708.581 432.684C707.102 432.275 705.574 432.07 704.039 432.076H699.457L699.335 452.516Z" fill="#093F68"/>
<path d="M251.524 347.883H42.4208C37.426 347.883 33.377 351.932 33.377 356.927V426.925C33.377 431.92 37.426 435.969 42.4208 435.969H251.524C256.518 435.969 260.567 431.92 260.567 426.925V356.927C260.567 351.932 256.518 347.883 251.524 347.883Z" fill="#FACF5A"/>
<path d="M251.564 440.025H42.4207C38.9466 440.025 35.6147 438.645 33.1581 436.188C30.7015 433.732 29.3214 430.4 29.3214 426.926V356.927C29.3214 353.453 30.7015 350.121 33.1581 347.665C35.6147 345.208 38.9466 343.828 42.4207 343.828H251.564C255.031 343.839 258.353 345.224 260.801 347.679C263.248 350.135 264.623 353.46 264.623 356.927V426.926C264.623 430.393 263.248 433.719 260.801 436.174C258.353 438.63 255.031 440.014 251.564 440.025ZM42.4207 352.061C41.0978 352.061 39.829 352.586 38.8935 353.522C37.958 354.457 37.4325 355.726 37.4325 357.049V427.048C37.4325 428.37 37.958 429.639 38.8935 430.575C39.829 431.51 41.0978 432.036 42.4207 432.036H251.564C252.88 432.025 254.139 431.495 255.065 430.561C255.992 429.626 256.512 428.364 256.512 427.048V356.927C256.512 355.611 255.992 354.349 255.065 353.414C254.139 352.48 252.88 351.95 251.564 351.939L42.4207 352.061Z" fill="#093F68"/>
<path d="M49.9235 389.087C49.8984 386.312 50.4079 383.558 51.424 380.976C52.3846 378.594 53.8514 376.449 55.7229 374.69C57.5817 372.903 59.7913 371.522 62.2118 370.634C67.4691 368.833 73.1765 368.833 78.4339 370.634C80.8662 371.522 83.089 372.903 84.9633 374.69C86.8231 376.45 88.2763 378.596 89.2215 380.976C90.2377 383.558 90.7472 386.312 90.7221 389.087C90.7554 391.863 90.2456 394.618 89.2215 397.198C88.273 399.592 86.8178 401.752 84.9556 403.53C83.0935 405.308 80.8687 406.662 78.4339 407.499C73.1857 409.354 67.4599 409.354 62.2118 407.499C59.7827 406.629 57.5695 405.246 55.7229 403.443C53.8591 401.662 52.394 399.506 51.424 397.117C50.4103 394.562 49.9007 391.835 49.9235 389.087ZM58.6023 389.087C58.5908 390.757 58.8652 392.417 59.4134 393.994C59.9625 395.417 60.7742 396.724 61.8062 397.847C62.8653 398.941 64.1343 399.81 65.5373 400.402C68.6724 401.592 72.1354 401.592 75.2706 400.402C76.6735 399.81 77.9425 398.941 79.0016 397.847C80.0336 396.724 80.8453 395.417 81.3944 393.994C81.9427 392.417 82.217 390.757 82.2055 389.087C82.213 387.417 81.9388 385.758 81.3944 384.18C80.8903 382.736 80.083 381.418 79.0267 380.312C77.9704 379.207 76.6896 378.341 75.2706 377.772C72.145 376.53 68.6629 376.53 65.5373 377.772C64.1182 378.341 62.8374 379.207 61.7811 380.312C60.7248 381.418 59.9175 382.736 59.4134 384.18C58.869 385.758 58.5948 387.417 58.6023 389.087Z" fill="#093F68"/>
<path d="M99.9283 389.087C99.9032 386.312 100.413 383.558 101.429 380.976C102.374 378.596 103.827 376.45 105.687 374.69C107.561 372.903 109.784 371.522 112.217 370.634C117.474 368.833 123.181 368.833 128.439 370.634C130.859 371.522 133.069 372.903 134.927 374.69C136.786 376.46 138.251 378.602 139.226 380.976C140.242 383.558 140.752 386.312 140.727 389.087C140.76 391.863 140.25 394.618 139.226 397.198C138.242 399.579 136.778 401.732 134.927 403.525C133.081 405.327 130.868 406.71 128.439 407.58C123.19 409.436 117.465 409.436 112.217 407.58C109.782 406.743 107.557 405.389 105.695 403.611C103.833 401.833 102.377 399.673 101.429 397.279C100.394 394.674 99.8843 391.89 99.9283 389.087ZM108.607 389.087C108.596 390.757 108.87 392.417 109.418 393.994C109.967 395.417 110.779 396.724 111.811 397.847C112.87 398.941 114.139 399.81 115.542 400.402C118.677 401.592 122.14 401.592 125.275 400.402C126.678 399.81 127.947 398.941 129.006 397.847C130.038 396.724 130.85 395.417 131.399 393.994C131.947 392.417 132.222 390.757 132.21 389.087C132.218 387.417 131.944 385.758 131.399 384.18C130.895 382.736 130.088 381.418 129.031 380.312C127.975 379.207 126.694 378.341 125.275 377.772C122.15 376.53 118.668 376.53 115.542 377.772C114.123 378.341 112.842 379.207 111.786 380.312C110.73 381.418 109.922 382.736 109.418 384.18C108.874 385.758 108.6 387.417 108.607 389.087Z" fill="#093F68"/>
<path d="M151.961 370.066H166.074C167.94 370.064 169.802 370.254 171.63 370.634C173.266 370.923 174.826 371.544 176.213 372.459C177.547 373.355 178.624 374.586 179.335 376.028C180.176 377.77 180.579 379.691 180.512 381.624C180.574 383.535 180.199 385.436 179.416 387.18C178.753 388.616 177.734 389.858 176.456 390.79C175.133 391.729 173.627 392.379 172.035 392.696C170.195 393.078 168.319 393.268 166.439 393.264H160.477V408.066H151.961V370.066ZM160.315 386.288H165.912C166.626 386.37 167.347 386.37 168.061 386.288C168.736 386.163 169.381 385.915 169.967 385.558C170.511 385.204 170.968 384.733 171.305 384.179C171.65 383.487 171.817 382.721 171.792 381.949C171.822 381.117 171.596 380.295 171.143 379.596C170.683 379.012 170.083 378.552 169.399 378.258C168.665 377.928 167.886 377.71 167.088 377.609H164.614H160.477L160.315 386.288Z" fill="#093F68"/>
<path d="M209.914 379.354C209.189 378.476 208.234 377.816 207.156 377.448C205.502 376.811 203.698 376.67 201.965 377.042C201.328 377.186 200.714 377.418 200.14 377.731C199.577 378.001 199.099 378.422 198.761 378.948C198.376 379.477 198.176 380.119 198.194 380.773C198.173 381.286 198.282 381.795 198.508 382.256C198.735 382.716 199.073 383.112 199.491 383.409C200.495 384.074 201.587 384.592 202.736 384.95L206.791 386.248C208.223 386.66 209.589 387.275 210.847 388.073C212.321 388.919 213.528 390.162 214.331 391.661C215.134 393.159 215.501 394.853 215.389 396.549C215.433 398.459 215.015 400.351 214.172 402.065C213.448 403.644 212.365 405.033 211.009 406.12C209.611 407.164 208.029 407.934 206.345 408.391C204.513 408.919 202.614 409.179 200.708 409.162C198.374 409.188 196.055 408.803 193.854 408.026C191.646 407.239 189.628 405.996 187.933 404.376L193.895 397.847C194.751 398.971 195.863 399.875 197.139 400.483C198.401 401.102 199.789 401.421 201.195 401.416C201.891 401.415 202.585 401.333 203.263 401.172C203.928 401.035 204.57 400.803 205.169 400.483C205.69 400.151 206.144 399.725 206.507 399.226C206.935 398.51 207.088 397.663 206.938 396.843C206.789 396.023 206.348 395.284 205.696 394.765C204.692 394.013 203.567 393.437 202.371 393.061L198.315 391.682C196.808 391.23 195.364 390.59 194.016 389.776C192.697 389.003 191.562 387.951 190.691 386.694C189.767 385.155 189.316 383.378 189.393 381.584C189.353 379.727 189.771 377.888 190.61 376.231C191.375 374.665 192.468 373.282 193.814 372.175C195.214 371.127 196.795 370.344 198.477 369.864C200.227 369.341 202.045 369.082 203.871 369.093C205.986 369.082 208.09 369.383 210.117 369.985C212.116 370.592 213.957 371.631 215.511 373.027L209.914 379.354Z" fill="#093F68"/>
<path d="M230.394 403.444C230.394 402.791 230.518 402.144 230.759 401.537C231.004 400.946 231.363 400.409 231.815 399.957C232.267 399.505 232.804 399.146 233.395 398.901C234.015 398.656 234.676 398.532 235.342 398.536C235.995 398.536 236.642 398.66 237.248 398.901C237.839 399.146 238.376 399.505 238.829 399.957C239.281 400.409 239.64 400.946 239.884 401.537C240.126 402.144 240.25 402.791 240.249 403.444C240.254 404.11 240.13 404.771 239.884 405.39C239.64 405.981 239.281 406.518 238.829 406.971C238.376 407.423 237.839 407.782 237.248 408.026C236.642 408.268 235.995 408.391 235.342 408.391C234.676 408.396 234.015 408.272 233.395 408.026C232.804 407.782 232.267 407.423 231.815 406.971C231.363 406.518 231.004 405.981 230.759 405.39C230.514 404.771 230.39 404.11 230.394 403.444ZM239.357 395.332H231.246V369.904H239.357V395.332Z" fill="#093F68"/>
<path d="M606.585 138.497H482.445C480.202 138.526 477.995 137.934 476.067 136.788C474.139 135.641 472.565 133.983 471.52 131.998C470.475 130.013 469.999 127.778 470.145 125.54C470.291 123.301 471.053 121.146 472.347 119.314L534.397 29.0785C535.506 27.4054 537.013 26.0329 538.782 25.0835C540.551 24.1341 542.528 23.6372 544.535 23.6372C546.543 23.6372 548.52 24.1341 550.289 25.0835C552.058 26.0329 553.564 27.4054 554.674 29.0785L616.724 119.314C618.02 121.149 618.782 123.308 618.927 125.55C619.071 127.792 618.592 130.03 617.542 132.017C616.492 134.003 614.912 135.66 612.978 136.804C611.044 137.948 608.831 138.533 606.585 138.497Z" fill="white"/>
<path d="M606.585 142.551H482.445C479.462 142.579 476.529 141.784 473.969 140.253C471.409 138.723 469.32 136.516 467.932 133.875C466.545 131.234 465.913 128.262 466.105 125.285C466.297 122.308 467.306 119.442 469.021 117.001L531.03 26.766C532.517 24.5746 534.518 22.7806 536.858 21.5405C539.198 20.3004 541.806 19.6521 544.454 19.6521C547.102 19.6521 549.71 20.3004 552.05 21.5405C554.39 22.7806 556.391 24.5746 557.878 26.766L619.928 116.839C621.643 119.28 622.652 122.146 622.844 125.123C623.037 128.1 622.404 131.072 621.017 133.713C619.629 136.353 617.54 138.561 614.98 140.091C612.42 141.622 609.487 142.417 606.504 142.389L606.585 142.551ZM544.535 27.8205C543.207 27.8185 541.898 28.1429 540.724 28.7652C539.55 29.3875 538.547 30.2886 537.803 31.3893L475.754 121.625C474.881 122.849 474.366 124.292 474.267 125.793C474.167 127.293 474.486 128.791 475.189 130.121C475.891 131.45 476.949 132.558 478.245 133.321C479.541 134.084 481.023 134.471 482.526 134.44H606.585C608.085 134.463 609.562 134.07 610.851 133.304C612.141 132.539 613.193 131.43 613.891 130.102C614.589 128.774 614.904 127.279 614.803 125.782C614.702 124.286 614.187 122.847 613.317 121.625L551.227 31.3893C550.479 30.2829 549.47 29.3782 548.288 28.7556C547.107 28.133 545.79 27.8118 544.454 27.8205H544.535Z" fill="#093F68"/>
<path d="M536.424 108.728C536.419 107.658 536.626 106.596 537.033 105.606C537.416 104.633 537.996 103.749 538.735 103.009C539.475 102.27 540.358 101.69 541.332 101.307C542.814 100.677 544.45 100.502 546.032 100.806C547.614 101.109 549.069 101.877 550.213 103.01C550.954 103.749 551.534 104.632 551.916 105.606C552.726 107.623 552.726 109.875 551.916 111.892C551.534 112.865 550.954 113.749 550.213 114.487C549.466 115.217 548.584 115.795 547.618 116.191C545.601 117 543.349 117 541.332 116.191C540.358 115.807 539.475 115.228 538.735 114.488C537.996 113.749 537.416 112.865 537.033 111.892C536.62 110.889 536.414 109.813 536.424 108.728ZM551.024 95.7913H537.925V54.2222H551.024V95.7913Z" fill="#093F68"/>
</svg>
