<svg width="331" height="207" viewBox="0 0 331 207" fill="none" xmlns="http://www.w3.org/2000/svg">
<path d="M314.713 24.3923V195.976C314.713 198.12 313.862 200.175 312.347 201.69C310.831 203.206 308.776 204.057 306.633 204.057H9.55001C7.41207 204.049 5.36439 203.194 3.85544 201.68C2.3465 200.165 1.49925 198.114 1.49927 195.976V24.3923H314.713Z" fill="white"/>
<path d="M306.633 205.586H9.54999C8.29193 205.582 7.04697 205.33 5.88618 204.845C4.7254 204.36 3.67152 203.651 2.78473 202.759C1.89793 201.867 1.19559 200.808 0.717795 199.644C0.239999 198.481 -0.00389666 197.234 4.7073e-05 195.976V24.392C4.7073e-05 23.9944 0.157998 23.6131 0.439153 23.3319C0.720309 23.0508 1.10164 22.8928 1.49925 22.8928H314.713C315.111 22.8928 315.492 23.0508 315.773 23.3319C316.055 23.6131 316.212 23.9944 316.212 24.392V195.976C316.214 197.236 315.968 198.484 315.488 199.649C315.007 200.814 314.302 201.873 313.413 202.765C312.523 203.657 311.467 204.366 310.303 204.85C309.14 205.334 307.893 205.584 306.633 205.586ZM2.99846 25.8912V195.976C3.00242 197.72 3.6971 199.392 4.93051 200.626C6.16393 201.859 7.83566 202.554 9.57997 202.558H306.633C308.377 202.554 310.049 201.859 311.282 200.626C312.515 199.392 313.21 197.72 313.214 195.976V25.8912H2.99846Z" fill="black"/>
<path d="M9.55001 1.49902H306.633C308.776 1.49902 310.831 2.35039 312.347 3.86581C313.862 5.38124 314.713 7.4366 314.713 9.57974V24.4069H1.49927V9.57974C1.49925 7.44178 2.3465 5.39095 3.85544 3.87638C5.36439 2.36181 7.41207 1.50696 9.55001 1.49902Z" fill="#1A6683"/>
<path d="M314.713 25.8913H1.49921C1.10159 25.8913 0.720262 25.7333 0.439106 25.4522C0.15795 25.171 0 24.7897 0 24.3921V9.57992C0.00393211 7.04556 1.0104 4.61569 2.79965 2.82082C4.58891 1.02595 7.01561 0.0118768 9.54994 0H306.633C309.172 0.00396493 311.606 1.01455 313.402 2.81028C315.198 4.606 316.208 7.04039 316.212 9.57992V24.3921C316.212 24.7897 316.054 25.171 315.773 25.4522C315.492 25.7333 315.111 25.8913 314.713 25.8913ZM2.99841 22.8929H313.214V9.57992C313.21 7.83561 312.515 6.16388 311.282 4.93047C310.049 3.69705 308.377 3.00237 306.633 2.99841H9.54994C7.80563 3.00237 6.1339 3.69705 4.90049 4.93047C3.66707 6.16388 2.97239 7.83561 2.96843 9.57992L2.99841 22.8929Z" fill="black"/>
<path d="M18.6652 15.337C20.611 15.337 22.1884 13.7597 22.1884 11.8139C22.1884 9.86814 20.611 8.29077 18.6652 8.29077C16.7194 8.29077 15.1421 9.86814 15.1421 11.8139C15.1421 13.7597 16.7194 15.337 18.6652 15.337Z" fill="#F56132"/>
<path d="M18.6652 8.30554C19.3633 8.30258 20.0465 8.50706 20.6282 8.89304C21.2098 9.27903 21.6637 9.82912 21.9322 10.4735C22.2008 11.1179 22.2718 11.8275 22.1363 12.5123C22.0009 13.1971 21.665 13.8263 21.1714 14.3199C20.6778 14.8135 20.0486 15.1493 19.3638 15.2848C18.679 15.4203 17.9694 15.3492 17.325 15.0807C16.6806 14.8122 16.1305 14.3583 15.7446 13.7766C15.3586 13.195 15.1541 12.5118 15.1571 11.8137C15.161 10.8845 15.5319 9.99446 16.1889 9.33741C16.846 8.68036 17.736 8.30949 18.6652 8.30554ZM18.6652 5.30713C17.3747 5.30713 16.1133 5.69 15.0405 6.40726C13.9677 7.12452 13.1318 8.14393 12.6387 9.33646C12.1455 10.529 12.0172 11.841 12.2701 13.1065C12.5229 14.372 13.1455 15.5339 14.0591 16.4454C14.9727 17.3569 16.1361 17.9768 17.4021 18.2267C18.6682 18.4767 19.9799 18.3454 21.1713 17.8495C22.3627 17.3536 23.3802 16.5154 24.095 15.4409C24.8098 14.3665 25.1897 13.1042 25.1868 11.8137C25.1828 10.0867 24.4939 8.43172 23.2713 7.21194C22.0487 5.99215 20.3922 5.30712 18.6652 5.30713Z" fill="black"/>
<path d="M34.8565 15.337C36.8023 15.337 38.3796 13.7597 38.3796 11.8139C38.3796 9.86814 36.8023 8.29077 34.8565 8.29077C32.9107 8.29077 31.3334 9.86814 31.3334 11.8139C31.3334 13.7597 32.9107 15.337 34.8565 15.337Z" fill="#FFBC0E"/>
<path d="M34.8565 8.30556C35.5539 8.30556 36.2357 8.51258 36.8154 8.90037C37.3951 9.28816 37.8466 9.83929 38.1128 10.4839C38.379 11.1286 38.4479 11.8377 38.3108 12.5216C38.1736 13.2054 37.8366 13.8331 37.3423 14.3252C36.8481 14.8173 36.219 15.1517 35.5346 15.2859C34.8501 15.4202 34.1413 15.3483 33.4978 15.0793C32.8543 14.8104 32.3051 14.3565 31.9198 13.7751C31.5345 13.1938 31.3304 12.5111 31.3333 11.8137C31.3333 11.3517 31.4246 10.8943 31.6018 10.4677C31.779 10.0411 32.0388 9.65371 32.3661 9.32775C32.6935 9.00179 33.082 8.74371 33.5094 8.56829C33.9367 8.39287 34.3945 8.30358 34.8565 8.30556ZM34.8565 5.30715C33.5653 5.30418 32.3024 5.68453 31.2277 6.39998C30.1529 7.11544 29.3147 8.1338 28.8192 9.32607C28.3238 10.5183 28.1934 11.8308 28.4445 13.0973C28.6957 14.3637 29.3171 15.5271 30.2301 16.4401C31.143 17.3531 32.3064 17.9745 33.5729 18.2256C34.8393 18.4768 36.1518 18.3464 37.3441 17.8509C38.5364 17.3555 39.5547 16.5173 40.2702 15.4425C40.9856 14.3678 41.366 13.1048 41.363 11.8137C41.3591 10.0893 40.6723 8.4366 39.4529 7.21724C38.2336 5.99788 36.5809 5.31111 34.8565 5.30715Z" fill="black"/>
<path d="M51.033 15.337C52.9788 15.337 54.5562 13.7597 54.5562 11.8139C54.5562 9.86814 52.9788 8.29077 51.033 8.29077C49.0872 8.29077 47.5099 9.86814 47.5099 11.8139C47.5099 13.7597 49.0872 15.337 51.033 15.337Z" fill="#70CC40"/>
<path d="M51.0331 8.30561C51.7305 8.30562 52.4123 8.51263 52.992 8.90042C53.5717 9.28821 54.0232 9.83934 54.2894 10.484C54.5557 11.1286 54.6245 11.8378 54.4874 12.5216C54.3502 13.2054 54.0132 13.8332 53.519 14.3253C53.0248 14.8174 52.3956 15.1518 51.7112 15.286C51.0268 15.4202 50.3179 15.3483 49.6744 15.0794C49.0309 14.8104 48.4817 14.3565 48.0964 13.7752C47.7111 13.1938 47.507 12.5112 47.5099 11.8138C47.5139 10.882 47.8869 9.98968 48.5471 9.33221C49.2074 8.67473 50.1013 8.3056 51.0331 8.30561ZM51.0331 5.3072C49.7413 5.30126 48.4769 5.67907 47.4002 6.39271C46.3235 7.10635 45.4829 8.12368 44.9852 9.31568C44.4874 10.5077 44.3549 11.8206 44.6043 13.0881C44.8538 14.3555 45.474 15.5203 46.3864 16.4348C47.2987 17.3492 48.4621 17.9722 49.7289 18.2245C50.9958 18.4769 52.3091 18.3474 53.5022 17.8524C54.6954 17.3574 55.7146 16.5192 56.4308 15.4441C57.1469 14.369 57.5276 13.1055 57.5246 11.8138C57.5207 10.0867 56.8318 8.43179 55.6092 7.21201C54.3866 5.99222 52.7301 5.30719 51.0031 5.3072H51.0331Z" fill="black"/>
<path d="M329.435 39.8337H160.655V139.726H329.435V39.8337Z" fill="#1A6683"/>
<path d="M329.436 141.225H160.655C160.257 141.225 159.876 141.067 159.595 140.786C159.314 140.505 159.156 140.124 159.156 139.726V39.8339C159.156 39.4363 159.314 39.055 159.595 38.7738C159.876 38.4927 160.257 38.3347 160.655 38.3347H329.436C329.833 38.3347 330.214 38.4927 330.496 38.7738C330.777 39.055 330.935 39.4363 330.935 39.8339V139.726C330.935 140.124 330.777 140.505 330.496 140.786C330.214 141.067 329.833 141.225 329.436 141.225ZM162.154 138.227H327.936V41.3331H162.154V138.227Z" fill="black"/>
<path d="M245.045 79.0981L160.655 139.726H329.435L245.045 79.0981Z" fill="#1A6683"/>
<path d="M329.435 141.225H160.655C160.339 141.223 160.032 141.121 159.777 140.934C159.522 140.747 159.333 140.484 159.237 140.183C159.14 139.882 159.141 139.559 159.24 139.259C159.339 138.958 159.529 138.697 159.785 138.512L244.176 77.8836C244.43 77.7029 244.733 77.6057 245.045 77.6057C245.357 77.6057 245.661 77.7029 245.915 77.8836L330.38 138.512C330.637 138.698 330.828 138.96 330.926 139.262C331.025 139.564 331.024 139.889 330.926 140.19C330.828 140.492 330.636 140.755 330.379 140.941C330.122 141.127 329.813 141.226 329.495 141.225H329.435ZM165.317 138.227H324.788L245.045 80.942L165.317 138.227Z" fill="black"/>
<path d="M245.045 100.462L160.655 39.8337H329.435L245.045 100.462Z" fill="#1A6683"/>
<path d="M245.045 101.961C244.733 101.959 244.429 101.859 244.176 101.676L159.785 41.0483C159.53 40.8643 159.339 40.6045 159.239 40.3058C159.14 40.0071 159.137 39.6847 159.231 39.3842C159.326 39.0808 159.516 38.8156 159.772 38.627C160.028 38.4383 160.337 38.336 160.655 38.3347H329.436C329.754 38.336 330.063 38.4383 330.319 38.627C330.575 38.8156 330.764 39.0808 330.86 39.3842C330.955 39.6831 330.955 40.0046 330.858 40.3031C330.761 40.6017 330.573 40.8623 330.32 41.0483L245.915 101.676C245.665 101.865 245.359 101.965 245.045 101.961ZM165.317 41.3331L245.045 98.6178L324.788 41.3331H165.317Z" fill="black"/>
<path d="M250.128 75.6797C250.128 75.9646 250.008 76.2944 249.948 76.6842C249.892 77.0112 249.862 77.342 249.858 77.6737C249.857 77.8849 249.914 78.0923 250.023 78.2734C250.103 78.3669 250.205 78.439 250.321 78.4835C250.436 78.5279 250.56 78.5433 250.682 78.5282C251.013 78.5237 251.338 78.436 251.627 78.2734C251.97 78.071 252.258 77.788 252.466 77.4488C252.733 77.0123 252.931 76.5369 253.051 76.0396C253.218 75.3781 253.299 74.6978 253.291 74.0156C253.309 72.9216 253.105 71.8352 252.691 70.8223C252.326 69.9361 251.767 69.1423 251.057 68.4986C250.33 67.859 249.477 67.3789 248.553 67.0893C247.525 66.7672 246.452 66.6103 245.375 66.6245C244.204 66.6082 243.042 66.8275 241.957 67.2692C240.958 67.6726 240.054 68.2803 239.303 69.0533C238.557 69.8338 237.976 70.7566 237.594 71.7668C237.184 72.8645 236.981 74.0284 236.995 75.2C236.976 76.4213 237.201 77.6341 237.654 78.7681C238.075 79.7844 238.715 80.6955 239.528 81.4367C240.349 82.1754 241.306 82.7458 242.347 83.1158C243.489 83.514 244.691 83.7118 245.9 83.7005C246.973 83.7091 248.041 83.5471 249.063 83.2207C249.985 82.9151 250.847 82.4537 251.612 81.8565H254.955C253.902 83.3141 252.5 84.4842 250.877 85.2597C249.248 86.0371 247.465 86.4368 245.66 86.429C244.122 86.4313 242.596 86.1466 241.162 85.5895C239.778 85.0648 238.506 84.2812 237.414 83.2807C236.304 82.252 235.422 81.0006 234.828 79.6082C234.234 78.2157 233.94 76.7137 233.966 75.2C233.945 73.6526 234.257 72.1187 234.881 70.7024C235.461 69.3565 236.302 68.1388 237.354 67.1193C238.421 66.1011 239.673 65.297 241.042 64.7505C242.47 64.1689 243.998 63.8735 245.54 63.881C246.877 63.8843 248.204 64.1072 249.468 64.5407C250.723 64.9582 251.888 65.6093 252.901 66.4596C253.983 67.3581 254.847 68.4898 255.428 69.7699C256.01 71.0499 256.294 72.4451 256.259 73.8507C256.279 74.794 256.152 75.7346 255.885 76.6392C255.669 77.349 255.345 78.0215 254.925 78.6332C254.554 79.1456 254.103 79.5959 253.591 79.9675C253.127 80.2921 252.623 80.5543 252.092 80.7471C251.63 80.9199 251.153 81.0503 250.667 81.1368C250.29 81.1943 249.909 81.2293 249.528 81.2418C248.879 81.3041 248.23 81.1164 247.714 80.7171C247.383 80.4301 247.174 80.0281 247.129 79.5927C246.683 80.0344 246.179 80.4127 245.63 80.7171C244.905 81.0947 244.093 81.2756 243.276 81.2418C242.665 81.2477 242.06 81.1144 241.507 80.852C240.976 80.6136 240.505 80.2603 240.128 79.8176C239.727 79.3461 239.422 78.8013 239.228 78.2134C239.012 77.5453 238.906 76.8466 238.914 76.1445C238.915 75.2779 239.057 74.4172 239.333 73.5958C239.606 72.8034 240.011 72.0632 240.533 71.407C241.051 70.7808 241.694 70.2701 242.422 69.9078C243.216 69.5262 244.089 69.3362 244.97 69.3531C245.661 69.3306 246.347 69.4639 246.979 69.7429C247.54 70.03 247.984 70.5011 248.239 71.0772L248.478 69.7129H251.327L250.128 75.6797ZM247.324 74.8552C247.346 74.1497 247.152 73.4542 246.769 72.8612C246.578 72.5969 246.321 72.3864 246.024 72.2498C245.728 72.1133 245.401 72.0554 245.075 72.0817C244.648 72.067 244.223 72.1578 243.839 72.346C243.454 72.5343 243.122 72.8142 242.871 73.1611C242.306 73.9337 242.016 74.873 242.047 75.8297C242.047 76.1566 242.077 76.4827 242.137 76.8041C242.192 77.105 242.298 77.3941 242.452 77.6587C242.616 77.915 242.836 78.1304 243.096 78.2884C243.42 78.4569 243.781 78.5395 244.146 78.5282C244.664 78.5313 245.176 78.4186 245.645 78.1984C246.035 77.9912 246.369 77.6929 246.619 77.3289C246.858 76.9675 247.031 76.5665 247.129 76.1445C247.239 75.7227 247.304 75.2906 247.324 74.8552Z" fill="white"/>
<path d="M145.423 65.3954H77.284C76.8864 65.3954 76.5051 65.2374 76.2239 64.9563C75.9428 64.6751 75.7848 64.2938 75.7848 63.8962C75.7848 63.4986 75.9428 63.1172 76.2239 62.8361C76.5051 62.5549 76.8864 62.397 77.284 62.397H145.423C145.821 62.397 146.202 62.5549 146.483 62.8361C146.764 63.1172 146.922 63.4986 146.922 63.8962C146.922 64.2938 146.764 64.6751 146.483 64.9563C146.202 65.2374 145.821 65.3954 145.423 65.3954Z" fill="black"/>
<path d="M131.24 87.9283H34.8565C34.4589 87.9283 34.0776 87.7704 33.7964 87.4892C33.5153 87.2081 33.3573 86.8268 33.3573 86.4291C33.3573 86.0315 33.5153 85.6502 33.7964 85.3691C34.0776 85.0879 34.4589 84.9299 34.8565 84.9299H131.24C131.638 84.9299 132.019 85.0879 132.301 85.3691C132.582 85.6502 132.74 86.0315 132.74 86.4291C132.74 86.8268 132.582 87.2081 132.301 87.4892C132.019 87.7704 131.638 87.9283 131.24 87.9283Z" fill="black"/>
<path d="M173.503 110.911H67.7193C67.3217 110.911 66.9404 110.754 66.6592 110.472C66.378 110.191 66.2201 109.81 66.2201 109.412C66.2201 109.015 66.378 108.633 66.6592 108.352C66.9404 108.071 67.3217 107.913 67.7193 107.913H173.503C173.901 107.913 174.282 108.071 174.563 108.352C174.844 108.633 175.002 109.015 175.002 109.412C175.002 109.81 174.844 110.191 174.563 110.472C174.282 110.754 173.901 110.911 173.503 110.911Z" fill="black"/>
<path d="M254.19 152.934H62.0073C53.6115 152.934 46.8053 159.737 46.8053 168.128C46.8053 176.52 53.6115 183.323 62.0073 183.323H254.19C262.586 183.323 269.392 176.52 269.392 168.128C269.392 159.737 262.586 152.934 254.19 152.934Z" fill="#FACF5A"/>
<path d="M254.205 184.837H62.0222C57.5928 184.837 53.3448 183.078 50.2127 179.945C47.0806 176.813 45.321 172.565 45.321 168.136C45.321 163.707 47.0806 159.459 50.2127 156.326C53.3448 153.194 57.5928 151.435 62.0222 151.435H254.22C258.65 151.435 262.898 153.194 266.03 156.326C269.162 159.459 270.921 163.707 270.921 168.136C270.921 172.565 269.162 176.813 266.03 179.945C262.898 183.078 258.65 184.837 254.22 184.837H254.205ZM62.0222 154.433C58.388 154.433 54.9027 155.877 52.3329 158.447C49.7631 161.016 48.3195 164.502 48.3195 168.136C48.3195 171.77 49.7631 175.256 52.3329 177.825C54.9027 180.395 58.388 181.839 62.0222 181.839H254.22C257.855 181.839 261.34 180.395 263.91 177.825C266.479 175.256 267.923 171.77 267.923 168.136C267.923 164.502 266.479 161.016 263.91 158.447C261.34 155.877 257.855 154.433 254.22 154.433H62.0222Z" fill="black"/>
<path d="M256.904 169.77L226.95 162.109L234.626 192.063L241.372 185.302L260.637 204.552L269.392 195.781L250.143 176.531L256.904 169.77Z" fill="white"/>
<path d="M260.637 206.051C260.44 206.052 260.244 206.014 260.061 205.94C259.879 205.865 259.713 205.755 259.572 205.616L241.372 187.416L235.675 193.113C235.484 193.308 235.244 193.448 234.98 193.516C234.716 193.585 234.438 193.58 234.176 193.503C233.923 193.432 233.693 193.297 233.509 193.11C233.325 192.924 233.193 192.692 233.126 192.438L225.466 162.454C225.401 162.203 225.402 161.939 225.47 161.688C225.538 161.437 225.67 161.208 225.853 161.024C226.036 160.84 226.263 160.706 226.513 160.636C226.764 160.566 227.028 160.562 227.28 160.625L257.264 168.286C257.521 168.351 257.757 168.483 257.947 168.669C258.137 168.855 258.274 169.088 258.344 169.344C258.414 169.6 258.415 169.87 258.346 170.127C258.278 170.384 258.142 170.618 257.953 170.805L252.256 176.502L270.412 194.732C270.689 195.011 270.845 195.388 270.847 195.781C270.848 195.979 270.81 196.174 270.735 196.357C270.661 196.54 270.551 196.706 270.412 196.846L261.641 205.616C261.373 205.882 261.015 206.038 260.637 206.051ZM241.372 183.803C241.569 183.802 241.765 183.839 241.948 183.914C242.13 183.989 242.296 184.099 242.437 184.237L260.637 202.438L267.278 195.781L249.078 177.596C248.939 177.456 248.829 177.29 248.755 177.107C248.68 176.924 248.642 176.729 248.643 176.532C248.649 176.135 248.804 175.754 249.078 175.467L253.98 170.58L229.034 164.193L235.42 189.14L240.323 184.237C240.602 183.961 240.979 183.804 241.372 183.803Z" fill="black"/>
</svg>
